<?xml version="1.0" encoding="UTF-8" standalone="no"?>
<!-- Created with Inkscape (http://www.inkscape.org/) -->

<svg
   width="93.927597mm"
   height="72.759895mm"
   viewBox="0 0 93.927597 72.759895"
   version="1.1"
   id="svg1"
   xmlns="http://www.w3.org/2000/svg"
   xmlns:svg="http://www.w3.org/2000/svg">
  <defs
     id="defs1" />
  <g
     id="layer1"
     style="display:none"
     transform="translate(-45.640626,-109.14064)">
    <path
       style="fill:#ffdd00;stroke:none;stroke-width:13.2291;stroke-linecap:round;stroke-linejoin:round;paint-order:stroke fill markers"
       d="m 173.20508,159.99996 c 0,5.00004 0,5.00004 -4.33013,7.50004 l -56.29165,32.49999 c -4.33012,2.5 -4.33012,2.5 -8.66025,0 L 25.980762,155 c -4.330127,-2.5 -4.330127,-2.5 -4.330137,-7.50004 l 64.9519,-37.49995 z"
       id="path7" />
    <path
       style="fill:#ffdd00;stroke:none;stroke-width:13.2291;stroke-linecap:round;stroke-linejoin:round;paint-order:stroke fill markers"
       d="M 173.20508,159.99996 C 177.53521,157.5 177.53521,157.5 177.53521,152.5 V 87.499998 c 0,-5 0,-5 -4.33013,-7.5 L 95.262792,34.999999 c -4.330127,-2.5 -4.330127,-2.5 -8.660257,-1e-6 v 75.000012 z"
       id="path6" />
    <path
       style="fill:#4d4d4d;stroke:none;stroke-width:13.2291;stroke-linecap:round;stroke-linejoin:round;paint-order:stroke fill markers"
       d="m 86.602535,110.00001 86.602545,49.99995 V 85.000013 L 86.602535,34.999998 Z"
       id="path4" />
    <path
       style="fill:#666666;stroke:none;stroke-width:13.2291;stroke-linecap:round;stroke-linejoin:round;paint-order:stroke fill markers"
       d="m 86.602535,110.00001 -64.95191,37.49995 86.602545,50.00005 64.95191,-37.50005 z"
       id="path5" />
    <path
       style="fill:#008080;stroke:none;stroke-width:2.64583;stroke-linecap:round;stroke-linejoin:round;paint-order:stroke fill markers"
       d="M 88.334589,38.999999 171.47303,86.999998 V 157 L 88.334589,109 Z"
       id="path8" />
  </g>
  <g
     id="g101"
     transform="translate(-45.640626,-109.14064)">
    <path
       id="path27"
       style="color:#000000;fill:#ffdd00;stroke-linecap:round;stroke-linejoin:round;-inkscape-stroke:none;paint-order:stroke fill markers"
       d="m 59.53125,109.14063 a 0.66152613,0.66152613 0 0 0 -0.661975,0.66197 v 48.74793 l -13.117546,19.6758 a 0.66152613,0.66152613 0 0 0 -0.111104,0.36742 v 2.64635 a 0.66152613,0.66152613 0 0 0 0.661975,0.66043 h 92.60365 a 0.66152613,0.66152613 0 0 0 0.66198,-0.66043 v -2.64635 a 0.66152613,0.66152613 0 0 0 -0.11111,-0.36742 L 126.33803,158.54898 V 109.8026 a 0.66152613,0.66152613 0 0 0 -0.66043,-0.66197 z m 0.661975,1.3224 h 64.822405 v 47.625 H 60.193225 Z m 32.410942,0.66197 a 0.66145837,0.66145831 0 0 0 -0.661458,0.66146 0.66145837,0.66145831 0 0 0 0.661458,0.66146 0.66145837,0.66145831 0 0 0 0.661458,-0.66146 0.66145837,0.66145831 0 0 0 -0.661458,-0.66146 z M 62.1776,113.10938 a 0.66152613,0.66152613 0 0 0 -0.661975,0.66197 v 42.3323 a 0.66152613,0.66152613 0 0 0 0.661975,0.66198 h 60.85365 a 0.66152613,0.66152613 0 0 0 0.66198,-0.66198 v -42.3323 a 0.66152613,0.66152613 0 0 0 -0.66198,-0.66197 z m 0.660425,1.3224 h 59.531255 v 41.01145 H 62.838025 Z m -2.952275,44.9802 h 65.43735 l 12.34602,18.5198 H 47.538184 l 11.633398,-17.44855 z m 2.29185,1.3224 a 0.66145998,0.66145998 0 0 0 -0.661975,0.66197 0.66145998,0.66145998 0 0 0 0.661975,0.66043 H 63.5 A 0.66145998,0.66145998 0 0 0 64.161975,161.39635 0.66145998,0.66145998 0 0 0 63.5,160.73438 Z m 3.306775,0 a 0.66145998,0.66145998 0 0 0 -0.652156,0.54725 0.66145998,0.66145998 0 0 0 -0.0098,0.11472 0.66145998,0.66145998 0 0 0 0.661975,0.66043 h 1.3224 a 0.66145998,0.66145998 0 0 0 0.661975,-0.66043 0.66145998,0.66145998 0 0 0 -0.661975,-0.66197 z m 3.306775,0 a 0.66145998,0.66145998 0 0 0 -0.650606,0.54725 0.66145998,0.66145998 0 0 0 -0.0098,0.11472 0.66145998,0.66145998 0 0 0 0.01034,0.11472 0.66145998,0.66145998 0 0 0 0.535367,0.53537 0.66145998,0.66145998 0 0 0 0.114722,0.0103 h 1.32395 a 0.66145998,0.66145998 0 0 0 0.660425,-0.66043 0.66145998,0.66145998 0 0 0 -0.660425,-0.66197 z m 3.308325,0 a 0.66145998,0.66145998 0 0 0 -0.652156,0.54725 0.66145998,0.66145998 0 0 0 -0.0098,0.11472 0.66145998,0.66145998 0 0 0 0.01033,0.11472 0.66145998,0.66145998 0 0 0 0.536919,0.53589 0.66145998,0.66145998 0 0 0 0.114721,0.01 h 1.3224 a 0.66145998,0.66145998 0 0 0 0.661975,-0.66043 0.66145998,0.66145998 0 0 0 -0.661975,-0.66197 z m 3.306775,0 a 0.66145998,0.66145998 0 0 0 -0.652156,0.54725 0.66145998,0.66145998 0 0 0 -0.0098,0.11472 0.66145998,0.66145998 0 0 0 0.661975,0.66043 h 1.3224 a 0.66145998,0.66145998 0 0 0 0.661975,-0.66043 0.66145998,0.66145998 0 0 0 -0.661975,-0.66197 z m 3.306775,0 a 0.66145998,0.66145998 0 0 0 -0.650606,0.54725 0.66145998,0.66145998 0 0 0 -0.0098,0.11472 0.66145998,0.66145998 0 0 0 0.01034,0.11472 0.66145998,0.66145998 0 0 0 0.535367,0.53537 0.66145998,0.66145998 0 0 0 0.114722,0.0103 h 1.32395 a 0.66145998,0.66145998 0 0 0 0.660425,-0.66043 0.66145998,0.66145998 0 0 0 -0.660425,-0.66197 z m 3.308325,0 a 0.66145998,0.66145998 0 0 0 -0.652156,0.54725 0.66145998,0.66145998 0 0 0 -0.0098,0.11472 0.66145998,0.66145998 0 0 0 0.01033,0.11472 0.66145998,0.66145998 0 0 0 0.536919,0.53589 0.66145998,0.66145998 0 0 0 0.114721,0.01 h 1.3224 a 0.66145998,0.66145998 0 0 0 0.661975,-0.66043 0.66145998,0.66145998 0 0 0 -0.661975,-0.66197 z m 3.306775,0 a 0.66145998,0.66145998 0 0 0 -0.652156,0.54725 0.66145998,0.66145998 0 0 0 -0.0098,0.11472 0.66145998,0.66145998 0 0 0 0.661975,0.66043 h 1.3224 a 0.66145998,0.66145998 0 0 0 0.661975,-0.66043 0.66145998,0.66145998 0 0 0 -0.661975,-0.66197 z m 3.306775,0 a 0.66145998,0.66145998 0 0 0 -0.650606,0.54725 0.66145998,0.66145998 0 0 0 -0.0098,0.11472 0.66145998,0.66145998 0 0 0 0.01034,0.11472 0.66145998,0.66145998 0 0 0 0.535367,0.53537 0.66145998,0.66145998 0 0 0 0.114722,0.0103 h 1.32395 a 0.66145998,0.66145998 0 0 0 0.660425,-0.66043 0.66145998,0.66145998 0 0 0 -0.660425,-0.66197 z m 3.308325,0 a 0.66145998,0.66145998 0 0 0 -0.652156,0.54725 0.66145998,0.66145998 0 0 0 -0.0098,0.11472 0.66145998,0.66145998 0 0 0 0.01034,0.11472 0.66145998,0.66145998 0 0 0 0.536918,0.53589 0.66145998,0.66145998 0 0 0 0.114721,0.01 h 1.3224 a 0.66145998,0.66145998 0 0 0 0.661975,-0.66043 0.66145998,0.66145998 0 0 0 -0.661975,-0.66197 z m 3.306775,0 a 0.66145998,0.66145998 0 0 0 -0.652156,0.54725 0.66145998,0.66145998 0 0 0 -0.0098,0.11472 0.66145998,0.66145998 0 0 0 0.661975,0.66043 h 1.3224 a 0.66145998,0.66145998 0 0 0 0.661975,-0.66043 0.66145998,0.66145998 0 0 0 -0.661975,-0.66197 z m 3.306775,0 a 0.66145998,0.66145998 0 0 0 -0.650606,0.54725 0.66145998,0.66145998 0 0 0 -0.0098,0.11472 0.66145998,0.66145998 0 0 0 0.01034,0.11472 0.66145998,0.66145998 0 0 0 0.535367,0.53537 0.66145998,0.66145998 0 0 0 0.114722,0.0103 h 1.32395 a 0.66145998,0.66145998 0 0 0 0.660422,-0.66043 0.66145998,0.66145998 0 0 0 -0.660422,-0.66197 z m 3.308325,0 a 0.66145998,0.66145998 0 0 0 -0.65216,0.54725 0.66145998,0.66145998 0 0 0 -0.01,0.11472 0.66145998,0.66145998 0 0 0 0.0103,0.11472 0.66145998,0.66145998 0 0 0 0.53692,0.53589 0.66145998,0.66145998 0 0 0 0.11472,0.01 h 1.3224 a 0.66145998,0.66145998 0 0 0 0.66198,-0.66043 0.66145998,0.66145998 0 0 0 -0.66198,-0.66197 z m 3.30678,0 a 0.66145998,0.66145998 0 0 0 -0.64544,0.51469 0.66145998,0.66145998 0 0 0 -0.0165,0.14728 0.66145998,0.66145998 0 0 0 0.5147,0.64389 0.66145998,0.66145998 0 0 0 0.14728,0.0165 h 3.96875 a 0.66145998,0.66145998 0 0 0 0.66197,-0.66043 0.66145998,0.66145998 0 0 0 -0.66197,-0.66197 z m 8.59947,0 a 0.66145998,0.66145998 0 0 0 -0.65216,0.54725 0.66145998,0.66145998 0 0 0 -0.01,0.11472 0.66145998,0.66145998 0 0 0 0.54725,0.65061 0.66145998,0.66145998 0 0 0 0.11472,0.01 h 1.3224 a 0.66145998,0.66145998 0 0 0 0.66198,-0.66043 0.66145998,0.66145998 0 0 0 -0.66198,-0.66197 z m 3.96875,0 a 0.66145998,0.66145998 0 0 0 -0.65216,0.54725 0.66145998,0.66145998 0 0 0 -0.01,0.11472 0.66145998,0.66145998 0 0 0 0.66197,0.66043 h 1.3224 a 0.66145998,0.66145998 0 0 0 0.66198,-0.66043 0.66145998,0.66145998 0 0 0 -0.66198,-0.66197 z m 3.96875,0 a 0.66145998,0.66145998 0 0 0 -0.65216,0.54725 0.66145998,0.66145998 0 0 0 -0.01,0.11472 0.66145998,0.66145998 0 0 0 0.66197,0.66043 h 1.3224 a 0.66145998,0.66145998 0 0 0 0.66198,-0.66043 0.66145998,0.66145998 0 0 0 -0.66198,-0.66197 z m -61.536812,2.64635 a 0.66145998,0.66145998 0 0 0 -0.662492,0.66042 0.66145998,0.66145998 0 0 0 0.662492,0.66198 h 4.001823 a 0.66145998,0.66145998 0 0 0 0.661975,-0.66198 0.66145998,0.66145998 0 0 0 -0.661975,-0.66042 z m 5.974312,0 a 0.66145998,0.66145998 0 0 0 -0.65164,0.5457 0.66145998,0.66145998 0 0 0 -0.01033,0.11472 0.66145998,0.66145998 0 0 0 0.547254,0.65216 0.66145998,0.66145998 0 0 0 0.114721,0.01 h 1.3224 a 0.66145998,0.66145998 0 0 0 0.661975,-0.66198 0.66145998,0.66145998 0 0 0 -0.661975,-0.66042 z m 3.306775,0 a 0.66145998,0.66145998 0 0 0 -0.114721,0.01 0.66145998,0.66145998 0 0 0 -0.547254,0.65061 0.66145998,0.66145998 0 0 0 0.546737,0.65216 0.66145998,0.66145998 0 0 0 0.115238,0.01 h 1.3224 a 0.66145998,0.66145998 0 0 0 0.661975,-0.66198 0.66145998,0.66145998 0 0 0 -0.661975,-0.66042 z m 3.306775,0 a 0.66145998,0.66145998 0 0 0 -0.620117,0.43459 0.66145998,0.66145998 0 0 0 -0.04031,0.22583 0.66145998,0.66145998 0 0 0 0.545703,0.65164 0.66145998,0.66145998 0 0 0 0.114722,0.0103 h 1.32395 a 0.66145998,0.66145998 0 0 0 0.660425,-0.66198 0.66145998,0.66145998 0 0 0 -0.660425,-0.66042 z m 3.308325,0 a 0.66145998,0.66145998 0 0 0 -0.621667,0.43408 0.66145998,0.66145998 0 0 0 -0.04031,0.22634 0.66145998,0.66145998 0 0 0 0.547254,0.65216 0.66145998,0.66145998 0 0 0 0.114721,0.01 h 1.3224 a 0.66145998,0.66145998 0 0 0 0.661975,-0.66198 0.66145998,0.66145998 0 0 0 -0.661975,-0.66042 z m 3.306775,0 a 0.66145998,0.66145998 0 0 0 -0.114721,0.01 0.66145998,0.66145998 0 0 0 -0.547254,0.65061 0.66145998,0.66145998 0 0 0 0.546737,0.65216 0.66145998,0.66145998 0 0 0 0.115238,0.01 h 1.3224 a 0.66145998,0.66145998 0 0 0 0.661975,-0.66198 0.66145998,0.66145998 0 0 0 -0.661975,-0.66042 z m 3.306775,0 a 0.66145998,0.66145998 0 0 0 -0.620117,0.43459 0.66145998,0.66145998 0 0 0 -0.04031,0.22583 0.66145998,0.66145998 0 0 0 0.545703,0.65164 0.66145998,0.66145998 0 0 0 0.114722,0.0103 h 1.32395 a 0.66145998,0.66145998 0 0 0 0.660425,-0.66198 0.66145998,0.66145998 0 0 0 -0.660425,-0.66042 z m 3.308325,0 a 0.66145998,0.66145998 0 0 0 -0.621667,0.43408 0.66145998,0.66145998 0 0 0 -0.04031,0.22634 0.66145998,0.66145998 0 0 0 0.547254,0.65216 0.66145998,0.66145998 0 0 0 0.114721,0.01 h 1.3224 a 0.66145998,0.66145998 0 0 0 0.661975,-0.66198 0.66145998,0.66145998 0 0 0 -0.661975,-0.66042 z m 3.306775,0 a 0.66145998,0.66145998 0 0 0 -0.114721,0.01 0.66145998,0.66145998 0 0 0 -0.547254,0.65061 0.66145998,0.66145998 0 0 0 0.546737,0.65216 0.66145998,0.66145998 0 0 0 0.115238,0.01 h 1.3224 a 0.66145998,0.66145998 0 0 0 0.661975,-0.66198 0.66145998,0.66145998 0 0 0 -0.661975,-0.66042 z m 3.306775,0 a 0.66145998,0.66145998 0 0 0 -0.620117,0.43459 0.66145998,0.66145998 0 0 0 -0.04031,0.22583 0.66145998,0.66145998 0 0 0 0.545703,0.65164 0.66145998,0.66145998 0 0 0 0.114722,0.0103 h 1.32395 a 0.66145998,0.66145998 0 0 0 0.660425,-0.66198 0.66145998,0.66145998 0 0 0 -0.660425,-0.66042 z m 3.308325,0 a 0.66145998,0.66145998 0 0 0 -0.621667,0.43408 0.66145998,0.66145998 0 0 0 -0.04031,0.22634 0.66145998,0.66145998 0 0 0 0.547254,0.65216 0.66145998,0.66145998 0 0 0 0.114721,0.01 h 1.3224 a 0.66145998,0.66145998 0 0 0 0.661975,-0.66198 0.66145998,0.66145998 0 0 0 -0.661975,-0.66042 z m 3.306775,0 a 0.66145998,0.66145998 0 0 0 -0.114721,0.01 0.66145998,0.66145998 0 0 0 -0.547254,0.65061 0.66145998,0.66145998 0 0 0 0.546737,0.65216 0.66145998,0.66145998 0 0 0 0.115238,0.01 h 1.3224 a 0.66145998,0.66145998 0 0 0 0.66198,-0.66198 0.66145998,0.66145998 0 0 0 -0.66198,-0.66042 z m 3.30678,0 a 0.66145998,0.66145998 0 0 0 -0.62012,0.43459 0.66145998,0.66145998 0 0 0 -0.0403,0.22583 0.66145998,0.66145998 0 0 0 0.5457,0.65164 0.66145998,0.66145998 0 0 0 0.11473,0.0103 h 1.32395 a 0.66145998,0.66145998 0 0 0 0.66042,-0.66198 0.66145998,0.66145998 0 0 0 -0.66042,-0.66042 z m 3.30832,0 a 0.66145998,0.66145998 0 0 0 -0.62167,0.43408 0.66145998,0.66145998 0 0 0 -0.0403,0.22634 0.66145998,0.66145998 0 0 0 0.54725,0.65216 0.66145998,0.66145998 0 0 0 0.11472,0.01 h 1.3224 a 0.66145998,0.66145998 0 0 0 0.66198,-0.66198 0.66145998,0.66145998 0 0 0 -0.66198,-0.66042 z m 3.30678,0 a 0.66145998,0.66145998 0 0 0 -0.11473,0.01 0.66145998,0.66145998 0 0 0 -0.54725,0.65061 0.66145998,0.66145998 0 0 0 0.54674,0.65216 0.66145998,0.66145998 0 0 0 0.11524,0.01 h 1.3224 a 0.66145998,0.66145998 0 0 0 0.66197,-0.66198 0.66145998,0.66145998 0 0 0 -0.66197,-0.66042 z m 6.6151,0 a 0.66145998,0.66145998 0 0 0 -0.11473,0.01 0.66145998,0.66145998 0 0 0 -0.54725,0.65061 0.66145998,0.66145998 0 0 0 0.54725,0.65216 0.66145998,0.66145998 0 0 0 0.11473,0.01 h 1.3224 a 0.66145998,0.66145998 0 0 0 0.66197,-0.66198 0.66145998,0.66145998 0 0 0 -0.66197,-0.66042 z m 3.96875,0 a 0.66145998,0.66145998 0 0 0 -0.11473,0.01 0.66145998,0.66145998 0 0 0 -0.54725,0.65061 0.66145998,0.66145998 0 0 0 0.54725,0.65216 0.66145998,0.66145998 0 0 0 0.11473,0.01 h 1.3224 a 0.66145998,0.66145998 0 0 0 0.66197,-0.66198 0.66145998,0.66145998 0 0 0 -0.66197,-0.66042 z m 3.96875,0 a 0.66145998,0.66145998 0 0 0 -0.11473,0.01 0.66145998,0.66145998 0 0 0 -0.54725,0.65061 0.66145998,0.66145998 0 0 0 0.54725,0.65216 0.66145998,0.66145998 0 0 0 0.11473,0.01 h 1.3224 a 0.66145998,0.66145998 0 0 0 0.66197,-0.66198 0.66145998,0.66145998 0 0 0 -0.66197,-0.66042 z m -65.48438,2.6448 a 0.66145998,0.66145998 0 0 0 -0.661975,0.66197 0.66145998,0.66145998 0 0 0 0.661975,0.66198 h 4.642611 a 0.66145998,0.66145998 0 0 0 0.661975,-0.66198 0.66145998,0.66145998 0 0 0 -0.661975,-0.66197 z m 6.61355,0 a 0.66145998,0.66145998 0 0 0 -0.572058,0.33124 0.66145998,0.66145998 0 0 0 -0.04858,0.10439 0.66145998,0.66145998 0 0 0 -0.02997,0.11162 0.66145998,0.66145998 0 0 0 -0.0098,0.11472 0.66145998,0.66145998 0 0 0 0.0098,0.11472 0.66145998,0.66145998 0 0 0 0.02997,0.11162 0.66145998,0.66145998 0 0 0 0.505912,0.4253 0.66145998,0.66145998 0 0 0 0.114722,0.0103 h 1.32395 a 0.66145998,0.66145998 0 0 0 0.660425,-0.66198 0.66145998,0.66145998 0 0 0 -0.660425,-0.66197 z m 3.308325,0 a 0.66145998,0.66145998 0 0 0 -0.652156,0.54673 0.66145998,0.66145998 0 0 0 -0.0098,0.11524 0.66145998,0.66145998 0 0 0 0.547254,0.65216 0.66145998,0.66145998 0 0 0 0.114721,0.01 h 1.3224 a 0.66145998,0.66145998 0 0 0 0.661975,-0.66198 0.66145998,0.66145998 0 0 0 -0.661975,-0.66197 z m 3.306775,0 a 0.66145998,0.66145998 0 0 0 -0.652156,0.54673 0.66145998,0.66145998 0 0 0 -0.0098,0.11524 0.66145998,0.66145998 0 0 0 0.546737,0.65216 0.66145998,0.66145998 0 0 0 0.115238,0.01 h 1.3224 a 0.66145998,0.66145998 0 0 0 0.661975,-0.66198 0.66145998,0.66145998 0 0 0 -0.661975,-0.66197 z m 3.306775,0 a 0.66145998,0.66145998 0 0 0 -0.650606,0.54725 0.66145998,0.66145998 0 0 0 -0.0098,0.11472 0.66145998,0.66145998 0 0 0 0.545703,0.65164 0.66145998,0.66145998 0 0 0 0.114722,0.0103 h 1.32395 a 0.66145998,0.66145998 0 0 0 0.660425,-0.66198 0.66145998,0.66145998 0 0 0 -0.660425,-0.66197 z m 3.308325,0 a 0.66145998,0.66145998 0 0 0 -0.652156,0.54673 0.66145998,0.66145998 0 0 0 -0.0098,0.11524 0.66145998,0.66145998 0 0 0 0.547254,0.65216 0.66145998,0.66145998 0 0 0 0.114721,0.01 H 79.375 A 0.66145998,0.66145998 0 0 0 80.036975,166.6875 0.66145998,0.66145998 0 0 0 79.375,166.02553 Z m 3.306775,0 a 0.66145998,0.66145998 0 0 0 -0.652156,0.54673 0.66145998,0.66145998 0 0 0 -0.0098,0.11524 0.66145998,0.66145998 0 0 0 0.546737,0.65216 0.66145998,0.66145998 0 0 0 0.115238,0.01 h 1.3224 a 0.66145998,0.66145998 0 0 0 0.661975,-0.66198 0.66145998,0.66145998 0 0 0 -0.661975,-0.66197 z m 3.306775,0 a 0.66145998,0.66145998 0 0 0 -0.650606,0.54725 0.66145998,0.66145998 0 0 0 -0.0098,0.11472 0.66145998,0.66145998 0 0 0 0.545703,0.65164 0.66145998,0.66145998 0 0 0 0.114722,0.0103 h 1.32395 a 0.66145998,0.66145998 0 0 0 0.660425,-0.66198 0.66145998,0.66145998 0 0 0 -0.660425,-0.66197 z m 3.308325,0 a 0.66145998,0.66145998 0 0 0 -0.652156,0.54673 0.66145998,0.66145998 0 0 0 -0.0098,0.11524 0.66145998,0.66145998 0 0 0 0.547254,0.65216 0.66145998,0.66145998 0 0 0 0.114721,0.01 h 1.3224 a 0.66145998,0.66145998 0 0 0 0.661975,-0.66198 0.66145998,0.66145998 0 0 0 -0.661975,-0.66197 z m 3.306775,0 a 0.66145998,0.66145998 0 0 0 -0.652156,0.54673 0.66145998,0.66145998 0 0 0 -0.0098,0.11524 0.66145998,0.66145998 0 0 0 0.546737,0.65216 0.66145998,0.66145998 0 0 0 0.115238,0.01 h 1.3224 a 0.66145998,0.66145998 0 0 0 0.661975,-0.66198 0.66145998,0.66145998 0 0 0 -0.661975,-0.66197 z m 3.306775,0 a 0.66145998,0.66145998 0 0 0 -0.650606,0.54725 0.66145998,0.66145998 0 0 0 -0.0098,0.11472 0.66145998,0.66145998 0 0 0 0.545703,0.65164 0.66145998,0.66145998 0 0 0 0.114722,0.0103 h 1.32395 a 0.66145998,0.66145998 0 0 0 0.660425,-0.66198 0.66145998,0.66145998 0 0 0 -0.660425,-0.66197 z m 3.308325,0 a 0.66145998,0.66145998 0 0 0 -0.652156,0.54673 0.66145998,0.66145998 0 0 0 -0.0098,0.11524 0.66145998,0.66145998 0 0 0 0.547254,0.65216 0.66145998,0.66145998 0 0 0 0.114721,0.01 h 1.3224 a 0.66145998,0.66145998 0 0 0 0.661975,-0.66198 0.66145998,0.66145998 0 0 0 -0.661975,-0.66197 z m 3.30678,0 a 0.66145998,0.66145998 0 0 0 -0.65216,0.54673 0.66145998,0.66145998 0 0 0 -0.01,0.11524 0.66145998,0.66145998 0 0 0 0.54674,0.65216 0.66145998,0.66145998 0 0 0 0.11524,0.01 h 1.3224 a 0.66145998,0.66145998 0 0 0 0.66197,-0.66198 0.66145998,0.66145998 0 0 0 -0.66197,-0.66197 z m 3.30677,0 a 0.66145998,0.66145998 0 0 0 -0.65061,0.54725 0.66145998,0.66145998 0 0 0 -0.01,0.11472 0.66145998,0.66145998 0 0 0 0.5457,0.65164 0.66145998,0.66145998 0 0 0 0.11472,0.0103 h 1.32395 a 0.66145998,0.66145998 0 0 0 0.66043,-0.66198 0.66145998,0.66145998 0 0 0 -0.66043,-0.66197 z m 3.30833,0 a 0.66145998,0.66145998 0 0 0 -0.63976,0.4904 0.66145998,0.66145998 0 0 0 -0.0222,0.17157 0.66145998,0.66145998 0 0 0 0.49093,0.63975 0.66145998,0.66145998 0 0 0 0.17105,0.0222 h 4.62917 a 0.66145998,0.66145998 0 0 0 0.66198,-0.66198 0.66145998,0.66145998 0 0 0 -0.66198,-0.66197 z m 9.92187,0 a 0.66145998,0.66145998 0 0 0 -0.11472,0.01 0.66145998,0.66145998 0 0 0 -0.54725,0.65216 0.66145998,0.66145998 0 0 0 0.66197,0.66198 h 1.3224 a 0.66145998,0.66145998 0 0 0 0.66198,-0.66198 0.66145998,0.66145998 0 0 0 -0.66198,-0.66197 z m 3.96875,0 a 0.66145998,0.66145998 0 0 0 -0.65216,0.54673 0.66145998,0.66145998 0 0 0 -0.01,0.11524 0.66145998,0.66145998 0 0 0 0.54725,0.65216 0.66145998,0.66145998 0 0 0 0.11472,0.01 h 1.3224 a 0.66145998,0.66145998 0 0 0 0.66198,-0.66198 0.66145998,0.66145998 0 0 0 -0.66198,-0.66197 z m 3.96875,0 a 0.66145998,0.66145998 0 0 0 -0.65216,0.54673 0.66145998,0.66145998 0 0 0 -0.01,0.11524 0.66145998,0.66145998 0 0 0 0.54725,0.65216 0.66145998,0.66145998 0 0 0 0.11472,0.01 H 127 A 0.66145998,0.66145998 0 0 0 127.66198,166.6875 0.66145998,0.66145998 0 0 0 127,166.02553 Z m -69.453125,2.64635 a 0.66145998,0.66145998 0 0 0 -0.661975,0.66197 0.66145998,0.66145998 0 0 0 0.661975,0.66043 h 6.624919 a 0.66145998,0.66145998 0 0 0 0.662492,-0.66043 0.66145998,0.66145998 0 0 0 -0.662492,-0.66197 z m 8.597925,0 a 0.66145998,0.66145998 0 0 0 -0.650606,0.54725 0.66145998,0.66145998 0 0 0 -0.0098,0.11472 0.66145998,0.66145998 0 0 0 0.545703,0.65009 0.66145998,0.66145998 0 0 0 0.114722,0.0103 h 1.32395 a 0.66145998,0.66145998 0 0 0 0.660425,-0.66043 0.66145998,0.66145998 0 0 0 -0.660425,-0.66197 z m 3.308325,0 a 0.66145998,0.66145998 0 0 0 -0.652156,0.54725 0.66145998,0.66145998 0 0 0 -0.0098,0.11472 0.66145998,0.66145998 0 0 0 0.01033,0.11472 0.66145998,0.66145998 0 0 0 0.536919,0.53589 0.66145998,0.66145998 0 0 0 0.114721,0.01 h 1.3224 a 0.66145998,0.66145998 0 0 0 0.661975,-0.66043 0.66145998,0.66145998 0 0 0 -0.661975,-0.66197 z m 3.306775,0 a 0.66145998,0.66145998 0 0 0 -0.652156,0.54725 0.66145998,0.66145998 0 0 0 -0.0098,0.11472 0.66145998,0.66145998 0 0 0 0.661975,0.66043 h 1.3224 a 0.66145998,0.66145998 0 0 0 0.661975,-0.66043 0.66145998,0.66145998 0 0 0 -0.661975,-0.66197 z m 3.306775,0 a 0.66145998,0.66145998 0 0 0 -0.650606,0.54725 0.66145998,0.66145998 0 0 0 -0.0098,0.11472 0.66145998,0.66145998 0 0 0 0.01034,0.11472 0.66145998,0.66145998 0 0 0 0.535367,0.53537 0.66145998,0.66145998 0 0 0 0.114722,0.0103 h 1.32395 a 0.66145998,0.66145998 0 0 0 0.660425,-0.66043 0.66145998,0.66145998 0 0 0 -0.660425,-0.66197 z m 3.308325,0 a 0.66145998,0.66145998 0 0 0 -0.652156,0.54725 0.66145998,0.66145998 0 0 0 -0.0098,0.11472 0.66145998,0.66145998 0 0 0 0.01033,0.11472 0.66145998,0.66145998 0 0 0 0.536919,0.53589 0.66145998,0.66145998 0 0 0 0.114721,0.01 h 1.3224 a 0.66145998,0.66145998 0 0 0 0.661975,-0.66043 0.66145998,0.66145998 0 0 0 -0.661975,-0.66197 z m 3.306775,0 a 0.66145998,0.66145998 0 0 0 -0.652156,0.54725 0.66145998,0.66145998 0 0 0 -0.0098,0.11472 0.66145998,0.66145998 0 0 0 0.661975,0.66043 h 1.3224 a 0.66145998,0.66145998 0 0 0 0.661975,-0.66043 0.66145998,0.66145998 0 0 0 -0.661975,-0.66197 z m 3.306775,0 a 0.66145998,0.66145998 0 0 0 -0.650606,0.54725 0.66145998,0.66145998 0 0 0 -0.0098,0.11472 0.66145998,0.66145998 0 0 0 0.01034,0.11472 0.66145998,0.66145998 0 0 0 0.535367,0.53537 0.66145998,0.66145998 0 0 0 0.114722,0.0103 h 1.32395 a 0.66145998,0.66145998 0 0 0 0.660425,-0.66043 0.66145998,0.66145998 0 0 0 -0.660425,-0.66197 z m 3.308325,0 a 0.66145998,0.66145998 0 0 0 -0.652156,0.54725 0.66145998,0.66145998 0 0 0 -0.0098,0.11472 0.66145998,0.66145998 0 0 0 0.01034,0.11472 0.66145998,0.66145998 0 0 0 0.536918,0.53589 0.66145998,0.66145998 0 0 0 0.114721,0.01 h 1.3224 a 0.66145998,0.66145998 0 0 0 0.661975,-0.66043 0.66145998,0.66145998 0 0 0 -0.661975,-0.66197 z m 3.306775,0 a 0.66145998,0.66145998 0 0 0 -0.652156,0.54725 0.66145998,0.66145998 0 0 0 -0.0098,0.11472 0.66145998,0.66145998 0 0 0 0.661975,0.66043 h 1.3224 a 0.66145998,0.66145998 0 0 0 0.661975,-0.66043 0.66145998,0.66145998 0 0 0 -0.661975,-0.66197 z m 3.306775,0 a 0.66145998,0.66145998 0 0 0 -0.650606,0.54725 0.66145998,0.66145998 0 0 0 -0.0098,0.11472 0.66145998,0.66145998 0 0 0 0.01034,0.11472 0.66145998,0.66145998 0 0 0 0.535367,0.53537 0.66145998,0.66145998 0 0 0 0.114722,0.0103 h 1.32395 a 0.66145998,0.66145998 0 0 0 0.660425,-0.66043 0.66145998,0.66145998 0 0 0 -0.660425,-0.66197 z m 3.308325,0 a 0.66145998,0.66145998 0 0 0 -0.652156,0.54725 0.66145998,0.66145998 0 0 0 -0.0098,0.11472 0.66145998,0.66145998 0 0 0 0.01034,0.11472 0.66145998,0.66145998 0 0 0 0.536918,0.53589 0.66145998,0.66145998 0 0 0 0.114721,0.01 h 1.3224 a 0.66145998,0.66145998 0 0 0 0.661975,-0.66043 0.66145998,0.66145998 0 0 0 -0.661975,-0.66197 z m 3.30678,0 a 0.66145998,0.66145998 0 0 0 -0.65216,0.54725 0.66145998,0.66145998 0 0 0 -0.01,0.11472 0.66145998,0.66145998 0 0 0 0.66198,0.66043 h 1.3224 a 0.66145998,0.66145998 0 0 0 0.66197,-0.66043 0.66145998,0.66145998 0 0 0 -0.66197,-0.66197 z m 3.30677,0 a 0.66145998,0.66145998 0 0 0 -0.65061,0.54725 0.66145998,0.66145998 0 0 0 -0.01,0.11472 0.66145998,0.66145998 0 0 0 0.0103,0.11472 0.66145998,0.66145998 0 0 0 0.53537,0.53537 0.66145998,0.66145998 0 0 0 0.11472,0.0103 h 1.32395 a 0.66145998,0.66145998 0 0 0 0.66043,-0.66043 0.66145998,0.66145998 0 0 0 -0.66043,-0.66197 z m 3.30833,0 a 0.66145998,0.66145998 0 0 0 -0.63976,0.49092 0.66145998,0.66145998 0 0 0 -0.0222,0.17105 0.66145998,0.66145998 0 0 0 0.49093,0.6382 0.66145998,0.66145998 0 0 0 0.17105,0.0222 h 6.61148 a 0.66145998,0.66145998 0 0 0 0.66197,-0.66043 0.66145998,0.66145998 0 0 0 -0.66197,-0.66197 z m 11.90625,0 a 0.66145998,0.66145998 0 0 0 -0.65216,0.54725 0.66145998,0.66145998 0 0 0 -0.01,0.11472 0.66145998,0.66145998 0 0 0 0.0403,0.22634 0.66145998,0.66145998 0 0 0 0.0491,0.10439 0.66145998,0.66145998 0 0 0 0.1478,0.17518 0.66145998,0.66145998 0 0 0 0.094,0.0661 0.66145998,0.66145998 0 0 0 0.216,0.0786 0.66145998,0.66145998 0 0 0 0.11473,0.01 h 1.3224 a 0.66145998,0.66145998 0 0 0 0.66197,-0.66043 0.66145998,0.66145998 0 0 0 -0.66197,-0.66197 z m 3.96875,0 a 0.66145998,0.66145998 0 0 0 -0.65216,0.54725 0.66145998,0.66145998 0 0 0 -0.01,0.11472 0.66145998,0.66145998 0 0 0 0.66198,0.66043 h 1.3224 a 0.66145998,0.66145998 0 0 0 0.66197,-0.66043 0.66145998,0.66145998 0 0 0 -0.66197,-0.66197 z m 3.96875,0 a 0.66145998,0.66145998 0 0 0 -0.65216,0.54725 0.66145998,0.66145998 0 0 0 -0.01,0.11472 0.66145998,0.66145998 0 0 0 0.66198,0.66043 h 1.3224 a 0.66145998,0.66145998 0 0 0 0.66197,-0.66043 0.66145998,0.66145998 0 0 0 -0.66197,-0.66197 z m -41.67188,2.64635 a 0.66152613,0.66152613 0 0 0 -0.628902,0.45113 l -1.321883,3.96875 a 0.66152613,0.66152613 0 0 0 0.626835,0.87127 h 15.875 a 0.66152613,0.66152613 0 0 0 0.6289,-0.87127 l -1.324465,-3.96875 a 0.66152613,0.66152613 0 0 0 -0.626835,-0.45113 z m 0.476457,1.3224 h 12.275737 l 0.882633,2.64635 H 85.583924 Z m -39.503532,6.6151 h 91.281255 v 1.3224 H 46.963025 Z" />
  </g>
</svg>
